<?xml version="1.0" standalone="no"?>
<!DOCTYPE svg PUBLIC "-//W3C//DTD SVG 20010904//EN"
 "http://www.w3.org/TR/2001/REC-SVG-20010904/DTD/svg10.dtd">
<svg version="1.0" xmlns="http://www.w3.org/2000/svg"
 width="450.000000pt" height="468.000000pt" viewBox="0 0 450.000000 468.000000"
 preserveAspectRatio="xMidYMid meet">

<g transform="translate(0.000000,468.000000) scale(0.100000,-0.100000)"
fill="#000000" stroke="none">
<path d="M3591 4290 c-92 -21 -139 -99 -141 -234 0 -29 -20 -112 -50 -209 -44
-139 -56 -166 -90 -204 -56 -60 -128 -173 -196 -305 -182 -358 -397 -533 -753
-614 -131 -29 -325 -48 -416 -39 -201 19 -452 98 -890 280 -355 147 -560 215
-653 215 -48 0 -66 -13 -132 -96 -55 -68 -60 -80 -60 -123 0 -31 7 -57 18 -72
10 -13 23 -46 30 -74 21 -82 59 -176 107 -260 25 -43 45 -80 45 -82 0 -1 -19
0 -42 3 -61 8 -101 -22 -160 -120 -62 -102 -63 -149 -7 -211 10 -11 34 -52 53
-90 113 -226 350 -439 655 -587 l123 -61 -32 -13 c-18 -8 -39 -14 -47 -14 -26
0 -78 -29 -92 -52 -20 -33 -51 -156 -51 -206 0 -37 5 -48 33 -73 17 -16 70
-65 117 -107 107 -99 186 -152 314 -212 486 -231 1142 -218 1749 34 300 124
527 269 731 466 284 273 475 611 558 987 18 79 22 132 22 273 1 154 -2 185
-22 255 -45 155 -110 264 -315 527 -37 46 -47 69 -57 125 -28 160 -26 186 21
353 85 300 58 378 -166 486 -119 57 -152 65 -204 54z m140 -160 c22 -12 58
-37 80 -57 32 -29 42 -34 49 -23 5 8 12 11 17 7 4 -5 1 -12 -6 -16 -8 -5 -11
-17 -6 -30 9 -30 -11 -51 -49 -51 -26 0 -44 -13 -101 -70 -38 -38 -67 -72 -64
-75 9 -9 110 -25 155 -25 25 0 44 -5 44 -11 0 -6 -9 -47 -21 -92 -24 -91 -22
-161 7 -320 l16 -88 101 -127 c120 -153 158 -211 208 -316 50 -110 69 -201 69
-339 0 -146 -21 -269 -75 -432 -76 -232 -208 -462 -374 -652 -302 -345 -799
-608 -1326 -703 -504 -91 -1015 -2 -1323 230 -89 67 -168 150 -152 160 5 3 13
22 16 40 l7 35 -37 -34 c-20 -19 -36 -32 -36 -29 0 4 19 24 42 46 35 34 42 47
43 82 1 26 7 45 16 50 26 15 208 48 362 66 81 10 142 21 135 25 -7 3 -42 12
-78 18 -488 92 -943 388 -1105 720 -31 63 -34 76 -21 83 18 10 80 117 81 138
0 12 16 15 80 15 44 0 102 -3 128 -7 l49 -8 -47 53 c-109 120 -187 252 -234
393 -31 93 -38 136 -22 131 12 -3 88 93 93 118 9 44 119 11 535 -159 588 -241
793 -299 1043 -298 273 1 547 74 748 198 96 60 252 214 319 314 27 41 80 133
117 204 79 150 132 233 191 296 36 38 47 63 79 165 20 66 39 126 42 134 3 9
10 6 25 -13 11 -15 35 -34 52 -42 l31 -16 68 71 c37 39 68 75 68 79 0 5 -17
16 -37 26 -51 24 -131 87 -138 109 -17 47 64 63 136 27z"/>
<path d="M3263 90 c0 -30 1 -47 4 -37 5 18 5 18 25 0 21 -18 21 -18 9 5 -10
19 -10 27 1 40 10 13 8 13 -9 -1 -21 -19 -22 -19 -26 15 -2 20 -4 11 -4 -22z"/>
<path d="M3772 118 c-17 -17 -15 -53 3 -68 11 -9 19 -10 26 -3 8 8 6 11 -7 10
-30 -3 -32 51 -2 62 14 6 17 10 8 10 -9 1 -21 -4 -28 -11z"/>
<path d="M3858 105 c-24 -32 -23 -35 15 -34 31 2 31 2 4 6 -28 4 -28 5 -11 24
9 10 15 21 13 23 -2 2 -12 -6 -21 -19z"/>
<path d="M3930 126 c0 -2 9 -6 20 -9 11 -3 18 -1 14 4 -5 9 -34 13 -34 5z"/>
<path d="M4010 126 c0 -2 9 -6 20 -9 11 -3 18 -1 14 4 -5 9 -34 13 -34 5z"/>
<path d="M4094 118 c-5 -7 -3 -8 6 -3 7 4 16 2 21 -6 7 -11 9 -10 9 4 0 19
-25 23 -36 5z"/>
<path d="M4172 118 c-21 -21 -11 -78 14 -78 23 0 38 39 25 66 -12 27 -21 30
-39 12z m32 -14 c9 -23 -3 -56 -17 -51 -22 7 -21 67 2 67 5 0 12 -7 15 -16z"/>
<path d="M4252 118 c-17 -17 -15 -53 3 -68 11 -9 19 -10 26 -3 8 8 6 11 -7 10
-30 -3 -32 51 -2 62 14 6 17 10 8 10 -9 1 -21 -4 -28 -11z"/>
<path d="M4330 121 c0 -5 9 -7 20 -4 11 3 20 7 20 9 0 2 -9 4 -20 4 -11 0 -20
-4 -20 -9z"/>
<path d="M2922 83 c2 -20 9 -38 16 -39 7 -1 8 0 2 3 -14 7 -13 50 2 55 7 3 5
7 -6 11 -15 6 -17 2 -14 -30z"/>
<path d="M3092 83 c2 -20 9 -38 16 -39 7 -1 8 0 2 3 -14 7 -13 50 2 55 7 3 5
7 -6 11 -15 6 -17 2 -14 -30z"/>
<path d="M2741 60 c1 -25 3 -37 6 -28 2 9 10 15 17 12 19 -7 39 22 31 45 -4
14 -14 20 -31 19 -22 -2 -24 -7 -23 -48z m46 24 c8 -21 -13 -42 -28 -27 -13
13 -5 43 11 43 6 0 13 -7 17 -16z"/>
<path d="M2823 75 c0 -22 2 -30 4 -17 2 12 2 30 0 40 -3 9 -5 -1 -4 -23z"/>
<path d="M2858 95 c7 -14 7 -27 1 -40 -10 -19 -10 -19 4 -2 15 18 16 18 26 0
6 -10 11 -13 11 -7 0 5 -5 15 -11 21 -8 8 -8 13 0 17 6 4 11 13 11 19 0 8 -4
7 -9 -2 -8 -13 -12 -13 -27 0 -16 13 -16 12 -6 -6z"/>
<path d="M2980 100 c13 -9 13 -12 -2 -21 -26 -15 -23 -39 5 -37 19 2 22 7 19
35 -3 22 -9 33 -21 33 -14 0 -14 -2 -1 -10z m10 -40 c0 -5 -4 -10 -10 -10 -5
0 -10 5 -10 10 0 6 5 10 10 10 6 0 10 -4 10 -10z"/>
<path d="M3034 98 c-4 -6 0 -16 9 -23 22 -16 21 -22 0 -28 -16 -4 -16 -5 -1
-6 24 -2 34 20 15 34 -22 16 -21 22 1 28 15 4 15 5 0 6 -9 0 -20 -4 -24 -11z"/>
<path d="M3137 103 c-4 -3 -7 -17 -7 -30 0 -26 26 -41 42 -25 8 8 5 9 -11 5
-18 -4 -21 -1 -21 22 0 22 4 26 20 22 11 -3 18 -1 14 4 -6 11 -28 12 -37 2z"/>
<path d="M3204 96 c-10 -25 0 -51 21 -54 18 -2 19 -2 3 8 -10 6 -18 17 -18 25
0 8 8 19 18 24 16 10 16 10 -1 11 -10 0 -20 -6 -23 -14z"/>
<path d="M3374 96 c-10 -25 0 -51 21 -54 18 -2 19 -2 3 8 -10 6 -18 17 -18 25
0 8 8 19 18 24 16 10 16 10 -1 11 -10 0 -20 -6 -23 -14z"/>
<path d="M3434 96 c-17 -44 26 -76 46 -34 10 21 10 21 -3 6 -21 -26 -37 -22
-37 8 0 21 4 25 20 21 11 -3 18 -1 14 4 -8 14 -34 11 -40 -5z"/>
<path d="M3501 71 c1 -35 2 -35 8 -7 9 43 31 45 32 4 l1 -33 7 29 c9 42 29 44
34 4 l5 -33 -2 35 c-1 34 -2 35 -43 36 l-43 1 1 -36z"/>
<path d="M3781 97 c2 -1 13 -9 24 -17 19 -14 19 -14 6 3 -7 9 -18 17 -24 17
-6 0 -8 -1 -6 -3z"/>
<path d="M3943 94 c24 -7 22 -42 -3 -47 -17 -4 -16 -4 2 -3 31 1 33 50 3 53
-16 1 -16 1 -2 -3z"/>
<path d="M4023 94 c24 -7 22 -42 -3 -47 -17 -4 -16 -4 2 -3 31 1 33 50 3 53
-16 1 -16 1 -2 -3z"/>
<path d="M4261 97 c2 -1 13 -9 24 -17 19 -14 19 -14 6 3 -7 9 -18 17 -24 17
-6 0 -8 -1 -6 -3z"/>
<path d="M4343 89 c9 -5 17 -16 17 -24 0 -7 -8 -16 -17 -19 -14 -4 -14 -4 2
-3 37 4 27 57 -10 57 -5 -1 -2 -5 8 -11z"/>
<path d="M4118 78 c10 -12 10 -18 1 -24 -7 -4 -18 1 -26 11 -12 17 -13 17 -13
2 0 -24 28 -33 46 -15 13 13 13 16 -3 29 -16 13 -17 12 -5 -3z"/>
<path d="M3663 73 c9 -2 23 -2 30 0 6 3 -1 5 -18 5 -16 0 -22 -2 -12 -5z"/>
</g>
</svg>
