<?xml version="1.0" standalone="no"?>
<!DOCTYPE svg PUBLIC "-//W3C//DTD SVG 20010904//EN"
 "http://www.w3.org/TR/2001/REC-SVG-20010904/DTD/svg10.dtd">
<svg version="1.0" xmlns="http://www.w3.org/2000/svg"
 width="564.000000pt" height="776.000000pt" viewBox="0 0 564.000000 776.000000"
 preserveAspectRatio="xMidYMid meet">

<g transform="translate(0.000000,776.000000) scale(0.100000,-0.100000)"
fill="#000000" stroke="none">
<path d="M830 7750 c0 -5 5 -10 10 -10 6 0 10 5 10 10 0 6 -4 10 -10 10 -5 0
-10 -4 -10 -10z"/>
<path d="M0 7719 c0 -18 4 -28 10 -24 6 4 8 11 5 16 -4 5 -1 9 4 9 6 0 11 -5
11 -11 0 -5 5 -7 10 -4 7 4 2 14 -11 26 -29 25 -29 24 -29 -12z"/>
<path d="M67 7743 c-4 -3 -7 -11 -7 -17 0 -6 5 -5 12 2 6 6 9 14 7 17 -3 3 -9
2 -12 -2z"/>
<path d="M760 7736 c0 -23 16 -27 17 -5 1 10 -2 19 -8 19 -5 0 -9 -6 -9 -14z"/>
<path d="M1810 7740 c0 -5 5 -10 10 -10 6 0 10 5 10 10 0 6 -4 10 -10 10 -5 0
-10 -4 -10 -10z"/>
<path d="M520 7730 c-8 -5 -12 -11 -9 -14 2 -3 11 -1 19 4 8 5 12 11 9 14 -2
3 -11 1 -19 -4z"/>
<path d="M560 7730 c0 -5 5 -10 10 -10 6 0 10 5 10 10 0 6 -4 10 -10 10 -5 0
-10 -4 -10 -10z"/>
<path d="M690 7725 c0 -8 2 -15 4 -15 2 0 6 7 10 15 3 8 1 15 -4 15 -6 0 -10
-7 -10 -15z"/>
<path d="M321 7707 c-6 -8 -7 -17 -3 -22 4 -4 -2 -6 -13 -3 -14 3 -21 0 -22
-11 -1 -9 -3 -21 -5 -28 -2 -6 2 -10 7 -9 6 0 9 4 8 7 -1 4 8 16 21 28 29 27
58 19 50 -14 -3 -13 -1 -32 5 -42 9 -15 10 -12 11 19 0 20 3 43 6 51 4 12 0
14 -15 10 -15 -4 -21 -1 -21 11 0 19 -14 21 -29 3z"/>
<path d="M840 7710 c0 -5 5 -10 10 -10 6 0 10 5 10 10 0 6 -4 10 -10 10 -5 0
-10 -4 -10 -10z"/>
<path d="M75 7675 c0 -19 3 -21 18 -13 10 5 17 11 15 12 -1 1 -10 7 -18 13
-12 9 -15 7 -15 -12z"/>
<path d="M975 7690 c-3 -5 9 -13 27 -19 39 -14 38 -14 32 3 -6 16 -52 28 -59
16z"/>
<path d="M1061 7686 c-11 -13 -11 -16 0 -16 12 0 12 -2 0 -9 -9 -6 -10 -11 -2
-15 6 -4 15 -5 20 -2 5 4 11 1 13 -6 5 -14 38 -4 38 12 0 5 -6 10 -14 10 -7 0
-20 10 -28 21 -12 19 -15 20 -27 5z"/>
<path d="M835 7680 c3 -5 8 -10 11 -10 2 0 4 5 4 10 0 6 -5 10 -11 10 -5 0 -7
-4 -4 -10z"/>
<path d="M0 7644 c0 -44 19 -68 38 -47 10 11 9 13 -5 13 -13 0 -18 8 -18 28
-1 15 4 30 10 34 6 5 3 8 -7 8 -14 0 -18 -8 -18 -36z"/>
<path d="M450 7670 c-9 -6 -10 -10 -3 -10 6 0 15 5 18 10 8 12 4 12 -15 0z"/>
<path d="M531 7671 c-8 -5 -21 -7 -29 -3 -10 3 -13 0 -10 -9 6 -15 8 -15 50
-5 20 5 28 2 31 -11 3 -11 5 -7 6 10 1 28 -19 36 -48 18z"/>
<path d="M917 7664 c-10 -11 -9 -52 3 -59 6 -3 13 1 16 10 8 19 -8 60 -19 49z"/>
<path d="M629 7647 c6 -8 7 -18 3 -23 -4 -4 1 -2 10 5 20 15 15 31 -9 31 -12
0 -13 -3 -4 -13z"/>
<path d="M966 7644 c-8 -21 -8 -24 4 -24 6 0 10 7 10 16 0 10 5 14 16 10 8 -3
12 -2 9 4 -9 15 -32 12 -39 -6z"/>
<path d="M238 7643 c7 -3 16 -2 19 1 4 3 -2 6 -13 5 -11 0 -14 -3 -6 -6z"/>
<path d="M70 7627 c0 -8 6 -14 14 -14 8 0 12 6 9 14 -3 7 -9 13 -14 13 -5 0
-9 -6 -9 -13z"/>
<path d="M407 7629 c7 -7 15 -10 18 -7 3 3 -2 9 -12 12 -14 6 -15 5 -6 -5z"/>
<path d="M840 7630 c0 -5 -6 -7 -14 -4 -10 4 -14 -1 -13 -15 1 -14 5 -17 11
-11 13 13 29 13 21 1 -3 -5 -1 -12 5 -16 5 -3 10 -2 10 3 0 5 10 13 23 16 22
6 22 7 3 21 -22 17 -46 20 -46 5z"/>
<path d="M435 7610 c-6 -20 -25 -28 -25 -11 0 6 -12 4 -26 -4 -18 -9 -34 -11
-50 -4 -17 6 -24 5 -24 -3 0 -6 -7 -4 -18 5 -16 15 -18 15 -20 -7 -1 -18 6
-25 36 -34 l37 -11 -42 3 c-23 2 -44 2 -47 -1 -3 -3 -26 -8 -52 -10 -26 -2
-55 -8 -65 -14 -20 -10 -59 14 -55 35 2 6 1 8 -1 4 -3 -5 -11 -8 -20 -8 -10 0
-12 6 -8 20 3 11 2 20 -3 20 -9 0 -28 -73 -20 -76 1 -1 -6 -12 -16 -23 -17
-18 -17 -21 -3 -15 13 4 17 1 17 -15 0 -12 5 -21 10 -21 6 0 5 -8 -2 -20 -15
-23 -3 -39 15 -19 19 24 67 51 67 39 0 -6 5 -8 13 -3 6 4 22 6 35 4 13 -1 29
2 37 9 7 6 24 9 37 6 23 -4 63 16 52 26 -2 3 7 8 21 10 14 3 28 1 31 -3 7 -12
44 -11 44 1 0 6 -4 10 -10 10 -5 0 -6 8 -3 17 4 11 8 12 11 5 5 -17 22 -15 22
2 0 8 10 14 23 15 67 3 71 5 70 49 -1 18 19 14 47 -9 14 -12 18 -19 8 -16 -9
3 -24 0 -33 -7 -16 -11 -16 -13 0 -26 15 -12 18 -12 27 4 7 13 13 15 24 5 15
-12 19 -7 27 44 5 32 -14 47 -37 28 -11 -9 -18 -8 -31 5 -14 14 -18 15 -25 4
-7 -11 -11 -11 -23 -1 -12 9 -16 9 -20 -1 -4 -10 -6 -10 -6 0 -1 19 -19 14
-26 -8z m-365 -145 c-8 -10 -7 -14 2 -18 7 -2 10 -8 6 -12 -14 -15 -38 16 -28
35 5 9 7 30 5 46 -4 29 -4 29 11 -4 11 -25 12 -37 4 -47z m225 55 c3 -6 -1 -7
-9 -4 -18 7 -21 14 -7 14 6 0 13 -4 16 -10z m-245 -30 c0 -5 -4 -10 -10 -10
-5 0 -10 5 -10 10 0 6 5 10 10 10 6 0 10 -4 10 -10z m85 -10 c-3 -5 -11 -10
-16 -10 -6 0 -7 5 -4 10 3 6 11 10 16 10 6 0 7 -4 4 -10z m30 0 c3 -5 1 -10
-4 -10 -6 0 -11 5 -11 10 0 6 2 10 4 10 3 0 8 -4 11 -10z"/>
<path d="M223 7613 c-7 -2 -13 -10 -13 -18 0 -18 27 -38 34 -26 4 5 2 13 -4
16 -8 5 -7 11 1 21 11 14 5 17 -18 7z"/>
<path d="M671 7601 c-8 -5 -11 -16 -8 -24 6 -16 -18 -31 -34 -21 -5 3 -9 2 -9
-3 0 -17 16 -28 42 -28 27 -1 27 0 43 73 4 14 -14 16 -34 3z"/>
<path d="M725 7602 c-12 -12 -3 -19 25 -19 18 0 29 5 27 11 -4 11 -42 17 -52
8z"/>
<path d="M100 7588 c0 -16 23 -19 37 -5 14 13 13 15 -11 14 -14 -1 -26 -5 -26
-9z"/>
<path d="M160 7590 c0 -5 5 -10 10 -10 6 0 10 5 10 10 0 6 -4 10 -10 10 -5 0
-10 -4 -10 -10z"/>
<path d="M733 7560 c-13 -5 -23 -11 -23 -13 0 -8 50 5 56 14 6 11 -4 11 -33
-1z"/>
<path d="M812 7558 c2 -5 7 -9 11 -9 4 1 14 1 22 1 26 0 16 15 -10 16 -15 1
-25 -2 -23 -8z"/>
<path d="M3 7430 c-1 -11 2 -18 8 -15 11 7 12 35 1 35 -4 0 -8 -9 -9 -20z"/>
<path d="M85 7410 c-3 -5 -1 -10 4 -10 6 0 11 5 11 10 0 6 -2 10 -4 10 -3 0
-8 -4 -11 -10z"/>
<path d="M1 7349 c1 -24 4 -35 6 -24 3 11 9 25 14 31 6 7 4 16 -6 24 -13 11
-15 7 -14 -31z"/>
<path d="M210 7379 c0 -5 5 -7 10 -4 6 3 10 8 10 11 0 2 -4 4 -10 4 -5 0 -10
-5 -10 -11z"/>
<path d="M70 7360 c0 -5 5 -10 11 -10 5 0 7 5 4 10 -3 6 -8 10 -11 10 -2 0 -4
-4 -4 -10z"/>
<path d="M25 7339 c-10 -15 3 -25 16 -12 7 7 7 13 1 17 -6 3 -14 1 -17 -5z"/>
<path d="M60 7304 c0 -8 5 -12 10 -9 6 3 10 10 10 16 0 5 -4 9 -10 9 -5 0 -10
-7 -10 -16z"/>
<path d="M125 7310 c3 -5 8 -10 11 -10 2 0 4 5 4 10 0 6 -5 10 -11 10 -5 0 -7
-4 -4 -10z"/>
<path d="M190 7309 c0 -5 5 -7 10 -4 6 3 10 8 10 11 0 2 -4 4 -10 4 -5 0 -10
-5 -10 -11z"/>
<path d="M105 7280 c-3 -5 -1 -10 4 -10 6 0 11 5 11 10 0 6 -2 10 -4 10 -3 0
-8 -4 -11 -10z"/>
<path d="M2800 1350 c0 -5 5 -10 11 -10 5 0 7 5 4 10 -3 6 -8 10 -11 10 -2 0
-4 -4 -4 -10z"/>
<path d="M1190 1337 c0 -8 10 -17 23 -21 31 -8 37 -7 37 4 0 6 -3 9 -7 8 -5
-1 -18 3 -30 10 -19 11 -23 10 -23 -1z"/>
<path d="M2761 1309 c-17 -23 -26 -28 -36 -19 -9 8 -14 7 -18 -5 -4 -8 -1 -14
6 -12 8 1 11 -9 9 -28 -4 -30 -22 -61 -22 -37 0 22 -25 12 -37 -14 -12 -27 -7
-58 8 -48 5 3 9 14 9 25 0 11 7 19 17 19 13 0 14 -3 5 -12 -7 -7 -12 -19 -12
-27 0 -8 3 -12 6 -8 9 9 44 -63 47 -95 2 -33 7 -34 39 -8 23 17 27 18 44 4 17
-14 17 -15 2 -10 -24 7 -23 -7 1 -28 18 -17 20 -17 40 3 12 12 21 17 21 13 0
-10 88 -29 113 -24 9 2 17 10 17 18 0 8 6 14 13 13 26 -3 37 2 37 16 0 8 9 15
19 15 18 0 37 27 26 38 -3 3 -16 -1 -30 -8 -18 -9 -29 -10 -36 -3 -7 7 2 12
30 17 25 4 44 14 51 25 16 30 12 35 -14 17 -24 -15 -25 -15 -32 7 -4 12 -7 36
-6 52 1 17 -1 24 -4 18 -8 -18 -24 -16 -24 2 0 9 -9 15 -24 15 -27 0 -44 -16
-24 -23 7 -2 2 -2 -12 1 -14 3 -36 6 -50 7 -14 2 -24 8 -22 15 2 7 0 20 -3 29
-5 12 -10 8 -22 -17 -21 -43 -31 -41 -26 6 3 32 0 39 -22 49 -14 6 -25 7 -25
2 0 -5 -7 -9 -15 -9 -18 0 -20 17 -3 22 8 3 7 6 -4 10 -10 4 -23 -4 -37 -23z
m82 -26 c-7 -2 -19 -2 -25 0 -7 3 -2 5 12 5 14 0 19 -2 13 -5z m-43 -9 c0 -21
-24 -44 -46 -44 l-26 0 23 25 c22 22 49 33 49 19z m40 -24 c0 -5 -4 -10 -9
-10 -6 0 -13 5 -16 10 -3 6 1 10 9 10 9 0 16 -4 16 -10z m5 -40 c-3 -5 -13
-10 -21 -10 -8 0 -14 5 -14 10 0 6 9 10 21 10 11 0 17 -4 14 -10z m15 -50 c0
-16 5 -32 10 -35 6 -3 10 -13 10 -21 0 -8 -4 -12 -10 -9 -5 3 -10 -1 -10 -10
0 -9 -5 -13 -11 -9 -6 3 -8 17 -5 30 5 20 3 24 -16 25 l-23 0 23 11 c12 6 22
17 22 25 0 16 -12 17 -28 1 -9 -9 -12 -8 -12 4 0 16 27 29 43 21 4 -2 7 -17 7
-33z m-102 -25 c-1 -19 -5 -35 -9 -35 -12 0 -20 33 -10 43 5 5 7 16 4 25 -4
10 -2 13 5 8 6 -4 11 -22 10 -41z m248 15 c1 -17 -3 -30 -7 -30 -5 0 -9 14 -9
30 0 39 15 39 16 0z m40 14 c-3 -9 -6 -18 -6 -20 0 -2 -7 -4 -15 -4 -18 0 -19
12 -3 28 17 17 31 15 24 -4z m-126 -4 c0 -5 -5 -10 -11 -10 -5 0 -7 5 -4 10 3
6 8 10 11 10 2 0 4 -4 4 -10z m50 -39 c0 -5 -7 -11 -15 -15 -9 -3 -15 0 -15 9
0 8 7 15 15 15 8 0 15 -4 15 -9z m70 -51 c0 -5 -5 -10 -11 -10 -5 0 -7 5 -4
10 3 6 8 10 11 10 2 0 4 -4 4 -10z"/>
<path d="M6 1323 c-3 -3 -5 -18 -5 -32 1 -21 2 -22 6 -6 3 11 10 23 15 26 7 4
7 9 0 12 -5 4 -12 4 -16 0z"/>
<path d="M502 1310 c-12 -12 -22 -25 -22 -30 0 -6 -6 -10 -14 -10 -9 0 -12 -8
-8 -25 4 -24 3 -25 -22 -15 -29 11 -33 6 -11 -16 20 -21 19 -44 -3 -44 -10 0
-18 -8 -19 -18 -1 -15 4 -17 28 -14 16 2 32 8 34 13 6 9 55 -10 55 -22 0 -4
-4 -11 -10 -14 -16 -10 -11 -25 8 -25 10 0 24 -6 31 -12 10 -11 15 -9 27 6 8
11 14 25 14 30 -1 6 -7 0 -14 -13 -9 -17 -15 -20 -18 -10 -6 18 17 40 35 33 8
-3 20 -15 26 -27 6 -12 9 -14 7 -4 -3 10 0 17 8 17 8 0 16 -9 19 -19 3 -13 15
-21 38 -23 l34 -4 -26 -13 c-26 -13 -26 -14 -8 -32 24 -24 32 -24 24 1 -4 12
-2 20 5 20 6 0 8 -4 5 -10 -7 -11 2 -12 29 -1 11 4 21 18 23 30 3 19 0 22 -17
18 -13 -3 -23 0 -26 8 -3 8 -11 12 -17 10 -21 -8 -59 32 -52 55 3 11 11 20 16
20 6 0 7 -9 3 -22 -6 -20 -5 -21 9 -10 9 8 25 11 36 7 17 -5 20 -3 14 11 -5
13 -3 16 9 11 12 -4 14 -1 11 14 -6 22 10 25 30 5 12 -13 17 -13 37 1 31 22
13 35 -54 35 -31 0 -56 3 -56 6 0 3 8 11 18 19 15 13 15 14 -10 8 -16 -3 -28
-1 -28 5 0 5 6 10 13 10 6 0 3 6 -7 12 -15 8 -21 7 -28 -6 -5 -9 -16 -16 -24
-16 -11 0 -13 -6 -9 -20 4 -12 2 -20 -5 -20 -6 0 -8 5 -4 11 4 8 -1 9 -17 4
-13 -4 -27 -13 -31 -19 -4 -6 -10 -7 -15 -3 -4 5 -1 12 7 17 19 12 6 23 -30
26 -47 3 -56 15 -21 30 17 7 31 18 31 25 0 7 -8 5 -20 -6 -21 -19 -28 -7 -8
13 21 21 -7 13 -30 -8z m148 -150 c-8 -5 -19 -10 -25 -10 -5 0 -3 5 5 10 8 5
20 10 25 10 6 0 3 -5 -5 -10z"/>
<path d="M1260 1310 c0 -5 15 -17 33 -25 17 -8 24 -13 13 -12 -13 1 -19 -5
-22 -26 -3 -27 -26 -59 -41 -57 -18 3 -12 -19 8 -34 19 -13 20 -16 7 -21 -9
-4 -15 -14 -13 -23 2 -9 4 -20 4 -24 1 -3 11 -4 24 -1 22 5 22 5 2 -12 -16
-13 -17 -16 -3 -11 12 3 15 1 11 -9 -3 -8 -9 -12 -14 -9 -5 3 -9 -2 -9 -10 0
-8 5 -18 12 -22 20 -12 97 -14 104 -2 4 7 9 6 14 -3 7 -10 12 -10 26 2 15 12
17 12 9 0 -6 -11 -4 -13 11 -6 22 9 53 10 88 1 18 -4 25 0 35 20 11 25 10 26
-14 22 -14 -3 -25 -2 -25 3 0 14 43 39 54 31 30 -18 47 -7 24 16 -9 9 -7 12
12 12 28 0 19 12 -13 16 -12 1 -29 3 -37 4 -10 1 -11 3 -2 7 21 8 13 23 -13
23 -26 0 -34 15 -13 22 21 7 -8 60 -30 56 -20 -3 -82 44 -82 63 0 8 -10 9 -30
5 -19 -3 -29 -2 -25 4 8 13 -8 13 -22 -1 -8 -8 -13 -8 -17 0 -9 14 -66 15 -66
1z m154 -46 c3 -8 2 -12 -4 -9 -6 3 -10 10 -10 16 0 14 7 11 14 -7z m126 -174
c0 -5 -4 -10 -10 -10 -5 0 -10 5 -10 10 0 6 5 10 10 10 6 0 10 -4 10 -10z"/>
<path d="M610 1299 c0 -5 6 -9 14 -9 8 0 17 -6 19 -12 3 -7 6 -4 6 7 1 14 -6
21 -19 22 -11 1 -20 -2 -20 -8z"/>
<path d="M415 1290 c-3 -5 -1 -10 4 -10 6 0 11 5 11 10 0 6 -2 10 -4 10 -3 0
-8 -4 -11 -10z"/>
<path d="M3739 1295 c-1 -5 -3 -17 -3 -25 -1 -8 -9 -14 -18 -12 -18 3 -32 -24
-18 -33 6 -4 10 -1 10 4 0 6 5 11 11 11 20 0 36 25 28 45 -4 11 -9 16 -10 10z"/>
<path d="M3580 1280 c-13 -8 -12 -10 3 -10 9 0 17 5 17 10 0 12 -1 12 -20 0z"/>
<path d="M3530 1269 c0 -6 -7 -9 -15 -5 -9 3 -15 0 -15 -10 0 -9 -9 -18 -21
-21 -14 -4 -19 -12 -16 -24 4 -14 0 -19 -14 -19 -10 0 -19 -4 -19 -10 0 -5 10
-9 22 -7 15 1 26 -5 33 -20 6 -16 15 -21 27 -17 15 4 16 2 10 -18 -5 -13 -18
-27 -30 -33 -12 -5 -24 -16 -27 -23 -3 -9 1 -9 17 3 28 19 39 19 32 0 -8 -19
6 -19 33 0 16 11 22 12 26 2 9 -26 23 16 26 81 1 6 8 12 16 12 9 0 12 6 8 16
-4 11 -2 15 7 12 23 -7 23 -29 1 -35 -12 -3 -21 -9 -21 -14 0 -12 27 -11 35 1
10 16 55 12 55 -5 0 -11 -11 -15 -41 -15 -22 0 -38 -4 -34 -9 3 -5 -3 -12 -12
-14 -10 -3 -1 -5 20 -6 20 0 37 4 37 9 0 6 10 10 23 10 16 0 18 -3 9 -9 -11
-7 -11 -9 2 -14 15 -6 20 3 17 31 -1 6 5 12 14 12 8 0 15 5 15 10 0 6 -4 10
-9 10 -6 0 -8 18 -5 40 3 24 1 40 -6 40 -5 0 -10 -7 -10 -15 0 -18 -4 -19 -30
-2 -17 10 -22 9 -30 -3 -9 -13 -12 -13 -21 3 -17 29 -75 14 -63 -17 8 -20 -40
-40 -64 -27 -19 10 -20 15 -10 44 14 40 12 39 31 31 13 -5 14 -10 6 -25 -12
-22 -3 -25 17 -5 10 10 11 17 3 21 -6 4 -9 16 -6 26 3 12 0 19 -9 19 -8 0 -14
-5 -14 -11z m150 -89 c0 -5 -5 -10 -11 -10 -5 0 -7 5 -4 10 3 6 8 10 11 10 2
0 4 -4 4 -10z m40 -10 c0 -5 -4 -10 -10 -10 -5 0 -10 5 -10 10 0 6 5 10 10 10
6 0 10 -4 10 -10z m-156 -52 c-8 -29 -10 -31 -23 -24 -7 5 -7 13 2 26 16 27
30 25 21 -2z"/>
<path d="M5195 1270 c3 -5 10 -10 16 -10 5 0 9 5 9 10 0 6 -7 10 -16 10 -8 0
-12 -4 -9 -10z"/>
<path d="M23 1263 c-15 -5 -18 -33 -4 -33 8 0 25 30 19 35 -2 1 -9 0 -15 -2z"/>
<path d="M90 1260 c0 -5 5 -10 11 -10 5 0 7 5 4 10 -3 6 -8 10 -11 10 -2 0 -4
-4 -4 -10z"/>
<path d="M5025 1240 c-3 -5 -2 -10 4 -10 5 0 13 5 16 10 3 6 2 10 -4 10 -5 0
-13 -4 -16 -10z"/>
<path d="M5076 1241 c-4 -7 -5 -15 -2 -18 9 -9 19 4 14 18 -4 11 -6 11 -12 0z"/>
<path d="M4382 1223 c2 -10 -4 -19 -14 -21 -13 -3 -16 1 -11 14 4 12 2 15 -8
10 -8 -3 -22 -9 -31 -12 -10 -4 -18 -13 -18 -21 0 -22 -30 4 -30 26 -1 28 -23
-19 -27 -57 l-4 -35 27 18 26 17 -7 -41 c-5 -29 -3 -41 5 -41 10 0 10 -3 1
-14 -10 -11 -9 -14 1 -12 7 1 19 5 25 9 9 5 11 3 7 -6 -3 -8 -1 -18 5 -22 6
-3 11 1 11 9 0 19 26 21 33 4 3 -8 6 -6 6 4 1 9 -7 22 -16 27 -14 8 -15 10 -3
11 23 0 43 -16 36 -29 -4 -6 -3 -11 1 -11 5 0 9 25 9 55 0 54 -8 70 -20 40 -3
-8 -3 -21 -1 -27 4 -9 -5 -13 -25 -13 -16 0 -30 3 -30 8 0 4 8 7 18 7 15 0 17
6 14 35 -3 27 -1 35 12 35 8 0 20 9 26 19 14 26 13 31 -5 31 -9 0 -15 -7 -13
-17z m-42 -73 c0 -5 -4 -10 -10 -10 -5 0 -10 5 -10 10 0 6 5 10 10 10 6 0 10
-4 10 -10z"/>
<path d="M5160 1226 c0 -16 -53 -31 -71 -20 -8 4 -9 3 -5 -4 4 -7 14 -12 23
-12 8 0 13 -6 10 -13 -2 -6 2 -18 9 -25 15 -14 18 -7 15 30 -2 12 4 15 20 11
18 -5 21 -3 16 10 -4 10 -2 17 3 17 6 0 10 5 10 10 0 6 -7 10 -15 10 -8 0 -15
-6 -15 -14z"/>
<path d="M5260 1229 c0 -6 8 -18 17 -27 16 -16 16 -16 10 1 -4 10 -7 23 -7 28
0 5 -4 9 -10 9 -5 0 -10 -5 -10 -11z"/>
<path d="M348 1190 c-3 -16 -1 -30 4 -30 4 0 8 9 8 20 0 13 5 18 15 14 11 -5
13 -2 9 10 -10 26 -31 18 -36 -14z"/>
<path d="M3115 1201 c-3 -5 -1 -12 5 -16 5 -3 10 1 10 9 0 18 -6 21 -15 7z"/>
<path d="M3770 1200 c0 -5 5 -10 11 -10 5 0 7 5 4 10 -3 6 -8 10 -11 10 -2 0
-4 -4 -4 -10z"/>
<path d="M4940 1200 c0 -5 5 -10 10 -10 6 0 10 5 10 10 0 6 -4 10 -10 10 -5 0
-10 -4 -10 -10z"/>
<path d="M5232 1189 c-12 -19 -7 -49 9 -49 5 0 9 8 9 18 0 10 5 23 11 29 7 7
6 12 -4 16 -7 3 -19 -3 -25 -14z"/>
<path d="M4210 1189 c0 -5 5 -7 10 -4 6 3 10 8 10 11 0 2 -4 4 -10 4 -5 0 -10
-5 -10 -11z"/>
<path d="M11 1177 c-16 -16 -15 -194 2 -194 6 0 17 -2 22 -4 16 -5 75 12 75
22 0 5 9 9 20 9 11 0 20 5 20 10 0 6 5 10 10 10 19 0 10 -27 -12 -38 -19 -9
-13 -11 35 -8 32 2 61 6 64 10 4 3 15 6 25 6 11 0 16 5 13 11 -4 6 -13 8 -21
5 -7 -3 -18 3 -23 12 -8 14 -11 14 -11 2 0 -11 -6 -9 -19 8 -11 12 -27 22 -38
23 -16 0 -16 1 2 9 18 7 18 9 -10 20 -37 14 -53 15 -85 6 -23 -6 -23 -6 -8 7
11 8 18 28 18 47 0 18 -3 31 -6 28 -3 -4 -18 -3 -34 2 -18 5 -32 4 -39 -3z
m127 -152 c-3 -3 -9 2 -12 12 -6 14 -5 15 5 6 7 -7 10 -15 7 -18z"/>
<path d="M5305 1161 c-4 -17 -11 -31 -16 -31 -16 0 -10 -25 10 -37 17 -11 19
-8 24 35 6 54 -8 79 -18 33z"/>
<path d="M5351 1174 c0 -11 3 -14 6 -6 3 7 2 16 -1 19 -3 4 -6 -2 -5 -13z"/>
<path d="M4515 1170 c-3 -5 -1 -10 4 -10 6 0 11 5 11 10 0 6 -2 10 -4 10 -3 0
-8 -4 -11 -10z"/>
<path d="M5380 1170 c0 -5 5 -10 10 -10 6 0 10 5 10 10 0 6 -4 10 -10 10 -5 0
-10 -4 -10 -10z"/>
<path d="M4958 1158 c9 -9 15 -9 24 0 9 9 7 12 -12 12 -19 0 -21 -3 -12 -12z"/>
<path d="M5064 1156 c-3 -9 -12 -16 -20 -16 -8 0 -14 -7 -14 -15 0 -8 7 -15
15 -15 22 0 30 4 30 15 0 6 4 15 8 22 4 6 3 14 -3 18 -6 3 -13 -1 -16 -9z"/>
<path d="M5165 1160 c3 -5 10 -10 16 -10 5 0 9 5 9 10 0 6 -7 10 -16 10 -8 0
-12 -4 -9 -10z"/>
<path d="M5470 1150 c0 -5 5 -10 10 -10 6 0 10 5 10 10 0 6 -4 10 -10 10 -5 0
-10 -4 -10 -10z"/>
<path d="M4185 1120 c-10 -11 -15 -20 -11 -20 14 0 46 21 46 30 0 16 -16 11
-35 -10z"/>
<path d="M705 1120 c-3 -5 1 -10 10 -10 9 0 13 5 10 10 -3 6 -8 10 -10 10 -2
0 -7 -4 -10 -10z"/>
<path d="M4655 1121 c-3 -6 -5 -11 -3 -12 27 -6 38 -5 35 4 -5 15 -24 20 -32
8z"/>
<path d="M4715 1120 c-3 -5 1 -10 10 -10 9 0 13 5 10 10 -3 6 -8 10 -10 10 -2
0 -7 -4 -10 -10z"/>
<path d="M456 1105 c-8 -8 -19 -15 -25 -15 -6 0 -11 -4 -11 -10 0 -5 5 -10 10
-10 6 0 10 -7 10 -16 0 -23 17 -8 25 23 3 15 12 31 18 35 9 6 9 8 0 8 -6 0
-18 -7 -27 -15z"/>
<path d="M5100 1107 c0 -8 -8 -18 -17 -20 -17 -4 -17 -5 0 -6 18 -1 35 25 23
36 -3 4 -6 -1 -6 -10z"/>
<path d="M5430 1104 c0 -8 5 -12 10 -9 6 3 10 10 10 16 0 5 -4 9 -10 9 -5 0
-10 -7 -10 -16z"/>
<path d="M4450 1095 c-10 -12 -9 -15 6 -15 11 0 25 4 32 9 11 7 10 10 -3 15
-22 8 -21 8 -35 -9z"/>
<path d="M4877 1096 c-3 -8 0 -20 8 -26 10 -8 16 -7 23 6 6 10 16 15 25 11 9
-3 19 -2 22 2 5 9 -27 21 -56 21 -9 0 -19 -6 -22 -14z"/>
<path d="M4621 1084 c0 -11 3 -14 6 -6 3 7 2 16 -1 19 -3 4 -6 -2 -5 -13z"/>
<path d="M4525 1080 c-4 -6 6 -10 22 -10 22 0 25 2 13 10 -19 12 -27 12 -35 0z"/>
<path d="M4710 1074 c0 -8 5 -12 10 -9 6 3 10 10 10 16 0 5 -4 9 -10 9 -5 0
-10 -7 -10 -16z"/>
<path d="M5270 1081 c0 -6 4 -13 10 -16 6 -3 7 1 4 9 -7 18 -14 21 -14 7z"/>
<path d="M2690 1071 c0 -11 26 -22 34 -14 3 3 3 10 0 14 -7 12 -34 11 -34 0z"/>
<path d="M3660 1062 c-8 -9 -14 -22 -12 -29 4 -18 -8 -16 -24 5 -13 15 -13 15
-8 0 16 -46 105 -63 144 -27 14 12 18 20 9 16 -9 -3 -22 -1 -30 4 -12 7 -12 9
1 10 8 1 18 1 23 0 19 -3 3 12 -28 25 -44 18 -56 17 -75 -4z"/>
<path d="M4865 1060 c3 -5 8 -10 11 -10 2 0 4 5 4 10 0 6 -5 10 -11 10 -5 0
-7 -4 -4 -10z"/>
<path d="M5110 1060 c0 -5 5 -10 10 -10 6 0 10 5 10 10 0 6 -4 10 -10 10 -5 0
-10 -4 -10 -10z"/>
<path d="M5455 1039 c-10 -15 3 -25 16 -12 7 7 7 13 1 17 -6 3 -14 1 -17 -5z"/>
<path d="M3880 1030 c0 -5 5 -10 11 -10 5 0 7 5 4 10 -3 6 -8 10 -11 10 -2 0
-4 -4 -4 -10z"/>
<path d="M4390 1029 c0 -5 5 -7 10 -4 6 3 10 8 10 11 0 2 -4 4 -10 4 -5 0 -10
-5 -10 -11z"/>
<path d="M5490 1020 c0 -5 5 -10 10 -10 6 0 10 5 10 10 0 6 -4 10 -10 10 -5 0
-10 -4 -10 -10z"/>
<path d="M750 999 c0 -5 5 -7 10 -4 6 3 10 8 10 11 0 2 -4 4 -10 4 -5 0 -10
-5 -10 -11z"/>
<path d="M1460 1006 c0 -2 8 -10 18 -17 15 -13 16 -12 3 4 -13 16 -21 21 -21
13z"/>
<path d="M5370 521 c0 -10 -7 -21 -15 -25 -8 -3 -15 -12 -15 -20 0 -12 7 -14
29 -10 16 3 37 1 48 -4 22 -12 49 0 39 17 -5 7 -1 8 9 4 13 -4 16 -1 13 13 -2
12 -12 19 -26 18 -12 0 -22 3 -22 8 0 4 -4 8 -10 8 -5 0 -7 -7 -4 -15 4 -8 1
-15 -6 -15 -6 0 -14 9 -17 20 -7 25 -23 26 -23 1z"/>
<path d="M5547 513 c-18 -5 -18 -6 -1 -24 18 -20 40 -27 29 -9 -3 6 1 10 10
10 10 0 15 -6 12 -12 -3 -8 4 -13 19 -13 18 0 24 5 24 23 0 27 -28 41 -41 21
-6 -10 -9 -10 -9 -1 0 12 -10 13 -43 5z"/>
<path d="M2732 394 c-7 -8 -8 -14 -3 -14 10 0 25 19 20 25 -2 1 -10 -3 -17
-11z"/>
<path d="M2592 376 c-12 -27 -36 -37 -26 -11 4 9 0 15 -9 15 -8 0 -20 -7 -27
-15 -7 -8 -22 -15 -34 -16 -19 0 -19 -1 4 -10 23 -9 23 -11 7 -20 -9 -6 -25
-8 -35 -5 -29 9 -46 -8 -32 -33 9 -18 14 -20 25 -11 18 15 35 5 35 -21 0 -11
7 -20 18 -21 72 -6 128 -4 134 5 4 7 11 7 21 -1 12 -10 18 -10 30 3 9 8 20 15
25 15 6 0 8 8 5 19 -5 19 21 36 39 25 5 -3 15 1 21 11 7 9 29 17 50 18 20 1
39 8 42 15 2 7 1 11 -4 8 -4 -3 -17 4 -29 14 -28 26 -32 25 -33 -7 0 -16 -3
-23 -5 -16 -3 7 -13 9 -22 6 -15 -6 -15 -5 -3 10 18 22 -1 23 -34 1 -22 -14
-26 -14 -39 -1 -8 8 -12 17 -9 21 4 3 1 6 -5 6 -7 0 -12 -4 -12 -10 0 -5 -7
-10 -16 -10 -8 0 -12 5 -9 10 3 6 3 15 -1 22 -5 7 -11 5 -21 -7 -12 -18 -14
-18 -26 -1 -12 17 -14 16 -25 -8z m-68 -92 c3 -8 2 -12 -4 -9 -6 3 -10 10 -10
16 0 14 7 11 14 -7z"/>
<path d="M1 374 c0 -11 3 -14 6 -6 3 7 2 16 -1 19 -3 4 -6 -2 -5 -13z"/>
<path d="M0 259 l0 -84 30 0 c22 0 30 5 30 18 0 10 4 16 10 12 5 -3 21 4 35
17 25 21 70 33 58 15 -3 -5 3 -7 12 -5 30 5 41 33 22 53 -9 9 -17 12 -17 6 0
-18 -20 -13 -27 7 -10 26 -31 44 -43 37 -21 -13 -83 -15 -96 -4 -12 10 -14 -2
-14 -72z m130 42 c0 -5 -11 -8 -25 -8 -14 0 -25 3 -25 8 0 5 11 9 25 9 14 0
25 -4 25 -9z"/>
<path d="M3116 332 c-2 -4 -1 -14 5 -22 7 -12 9 -10 9 8 0 23 -5 28 -14 14z"/>
<path d="M4073 280 c-13 -5 -23 -14 -23 -19 0 -6 -11 -13 -25 -17 -24 -6 -35
-24 -15 -24 6 0 10 -5 10 -11 0 -6 -8 -8 -19 -4 -11 3 -26 -1 -35 -10 -9 -9
-16 -13 -16 -9 0 4 -6 -1 -14 -12 -8 -10 -19 -20 -25 -20 -6 -1 -15 -2 -21 -3
-5 0 -10 -8 -10 -16 0 -8 -6 -15 -12 -15 -7 -1 1 -7 17 -15 17 -7 24 -14 18
-14 -7 -1 -13 -7 -13 -14 0 -7 -9 -13 -20 -14 -22 -2 -27 12 -7 20 7 3 4 6 -6
6 -10 1 -26 -6 -35 -15 -10 -11 -17 -13 -20 -5 -2 6 -10 11 -18 11 -8 0 -17 7
-20 15 -8 20 -30 19 -39 -2 -6 -16 -8 -16 -18 -3 -19 24 -100 61 -111 50 -5
-5 -8 -33 -7 -62 l1 -53 -37 0 c-42 1 -66 11 -58 26 4 5 -1 9 -9 9 -8 0 -19
-8 -25 -18 -8 -14 -12 -15 -22 -4 -16 15 -33 16 -24 2 4 -7 -2 -9 -19 -4 -22
5 -26 3 -26 -14 0 -20 5 -20 454 -21 358 -1 455 1 460 11 5 10 7 10 12 1 3 -7
12 -13 20 -13 11 0 10 5 -6 22 -11 12 -20 27 -20 33 0 6 -21 33 -47 60 -26 27
-48 56 -48 64 0 9 -16 24 -35 33 -22 11 -28 18 -17 18 11 0 17 6 15 13 -3 6
-10 12 -17 12 -7 0 -18 8 -25 18 -15 19 -13 19 -43 7z m-13 -70 c0 -5 -2 -10
-4 -10 -3 0 -8 5 -11 10 -3 6 -1 10 4 10 6 0 11 -4 11 -10z m164 -126 c5 -14
4 -15 -9 -4 -17 14 -19 20 -6 20 5 0 12 -7 15 -16z"/>
<path d="M5610 185 c-7 -8 -16 -15 -21 -15 -5 0 -23 -14 -40 -31 -28 -28 -37
-31 -76 -26 -43 5 -44 4 -41 -22 3 -22 -1 -26 -27 -29 -32 -4 -45 -16 -45 -44
0 -16 13 -18 140 -18 l140 0 0 100 c0 99 -6 114 -30 85z"/>
<path d="M4654 166 c-3 -8 -15 -11 -31 -8 -24 4 -24 3 -12 -19 7 -13 12 -25
11 -26 -1 -2 -2 -4 -1 -5 0 -2 2 -13 3 -24 1 -12 13 -35 27 -52 24 -30 26 -31
116 -31 64 -1 93 3 96 12 4 9 6 9 6 0 1 -16 471 -19 471 -3 0 5 -6 7 -14 4
-24 -9 -86 25 -79 44 5 12 2 14 -11 9 -15 -6 -17 -3 -11 23 4 20 3 30 -5 30
-6 0 -18 7 -26 15 -19 18 -46 8 -39 -14 4 -13 -6 -22 -37 -36 -53 -24 -71 -27
-65 -12 3 8 -12 13 -45 14 -50 3 -50 3 -44 -25 5 -20 4 -23 -4 -12 -8 13 -11
13 -19 1 -10 -16 -35 -5 -25 11 5 8 1 9 -10 5 -10 -4 -24 -7 -32 -7 -8 0 -11
-6 -8 -15 5 -12 -3 -15 -35 -15 -30 0 -41 4 -41 15 0 8 -9 15 -20 15 -13 0
-18 5 -14 15 4 11 -1 15 -17 15 -36 0 -82 44 -74 69 7 23 -2 29 -11 7z"/>
<path d="M5465 130 c3 -5 8 -10 11 -10 2 0 4 5 4 10 0 6 -5 10 -11 10 -5 0 -7
-4 -4 -10z"/>
<path d="M191 118 c13 -9 11 -14 -14 -39 -36 -36 -55 -38 -32 -3 11 18 14 29
7 36 -16 16 -32 0 -32 -33 0 -16 -4 -29 -9 -29 -6 0 -8 9 -6 20 2 11 0 20 -6
20 -5 0 -9 -10 -10 -22 0 -22 -1 -22 -9 -3 -5 11 -9 14 -9 8 -1 -18 -21 -16
-21 2 0 8 -5 15 -11 15 -5 0 -8 -4 -5 -9 4 -5 -3 -7 -14 -4 -18 5 -20 0 -20
-34 l0 -40 170 -2 c119 -1 170 2 170 10 0 6 7 9 15 5 8 -3 15 0 15 6 0 6 6 6
16 -3 25 -20 53 -18 61 5 6 20 7 20 14 -4 l7 -25 1 27 c1 22 5 26 19 21 15 -6
15 -5 -1 12 -14 14 -21 15 -27 6 -10 -17 -76 -8 -100 14 -11 10 -26 15 -35 12
-8 -4 -15 -2 -15 3 0 6 -7 10 -16 10 -10 0 -14 6 -10 15 6 17 -9 21 -19 5 -4
-6 -11 -8 -16 -4 -5 3 -24 7 -42 9 -25 3 -29 1 -16 -7z m165 -75 c-10 -10 -19
5 -10 18 6 11 8 11 12 0 2 -7 1 -15 -2 -18z m-26 -24 c0 -6 -4 -7 -10 -4 -5 3
-10 11 -10 16 0 6 5 7 10 4 6 -3 10 -11 10 -16z"/>
<path d="M3350 120 c0 -5 5 -10 10 -10 6 0 10 5 10 10 0 6 -4 10 -10 10 -5 0
-10 -4 -10 -10z"/>
<path d="M4835 120 c3 -5 8 -10 11 -10 2 0 4 5 4 10 0 6 -5 10 -11 10 -5 0 -7
-4 -4 -10z"/>
<path d="M691 58 c-9 -15 -16 -18 -18 -10 -3 6 -9 12 -15 12 -5 0 -8 -6 -5
-12 2 -7 -2 -21 -11 -30 -14 -17 -12 -18 27 -18 23 0 40 4 37 9 -3 5 6 9 19 9
14 0 25 -4 25 -9 0 -5 4 -9 8 -9 17 0 5 44 -17 61 -29 24 -33 24 -50 -3z m26
-20 c-17 -11 -28 1 -14 16 8 10 14 11 19 3 4 -6 2 -15 -5 -19z"/>
<path d="M1448 73 c17 -7 15 -23 -3 -23 -8 0 -15 -7 -15 -15 0 -7 -8 -19 -17
-24 -13 -7 45 -10 192 -10 116 0 216 4 224 8 8 5 -15 8 -58 6 -64 -2 -71 -1
-71 16 0 11 7 19 16 19 8 0 12 4 9 10 -8 12 -55 13 -55 1 0 -5 -9 -7 -20 -4
-11 3 -26 1 -33 -4 -6 -6 -31 -13 -55 -17 -37 -5 -46 -3 -68 19 -14 14 -33 25
-42 24 -10 0 -12 -3 -4 -6z"/>
<path d="M3380 70 c0 -5 4 -10 9 -10 6 0 13 5 16 10 3 6 -1 10 -9 10 -9 0 -16
-4 -16 -10z"/>
<path d="M3565 60 c-3 -5 -1 -10 4 -10 6 0 11 5 11 10 0 6 -2 10 -4 10 -3 0
-8 -4 -11 -10z"/>
<path d="M1296 34 c-34 -19 -23 -37 20 -32 21 2 30 9 32 26 4 26 -11 28 -52 6z"/>
<path d="M824 29 c-12 -20 13 -32 36 -16 18 13 19 15 5 21 -23 9 -33 8 -41 -5z"/>
<path d="M1865 30 c-3 -5 1 -10 9 -10 9 0 16 5 16 10 0 6 -4 10 -9 10 -6 0
-13 -4 -16 -10z"/>
<path d="M1910 16 c0 -9 5 -16 10 -16 6 0 10 4 10 9 0 6 -4 13 -10 16 -5 3
-10 -1 -10 -9z"/>
<path d="M500 10 c0 -5 7 -10 15 -10 8 0 15 5 15 10 0 6 -7 10 -15 10 -8 0
-15 -4 -15 -10z"/>
<path d="M918 3 c7 -3 16 -2 19 1 4 3 -2 6 -13 5 -11 0 -14 -3 -6 -6z"/>
</g>
</svg>
