<?xml version="1.0" standalone="no"?>
<!DOCTYPE svg PUBLIC "-//W3C//DTD SVG 20010904//EN"
 "http://www.w3.org/TR/2001/REC-SVG-20010904/DTD/svg10.dtd">
<svg version="1.0" xmlns="http://www.w3.org/2000/svg"
 width="176.000000pt" height="176.000000pt" viewBox="0 0 176.000000 176.000000"
 preserveAspectRatio="xMidYMid meet">

<g transform="translate(0.000000,176.000000) scale(0.100000,-0.100000)"
fill="#000000" stroke="none">
<path d="M1062 1433 c-34 -16 -110 -96 -140 -146 l-17 -28 -110 7 c-60 3 -137
1 -170 -4 l-60 -10 -70 53 c-194 146 -220 157 -252 108 -25 -38 -21 -127 12
-289 26 -131 26 -132 9 -215 -19 -94 -15 -199 10 -247 23 -44 91 -98 142 -112
174 -49 468 88 561 261 38 72 39 111 4 182 -16 34 -38 71 -48 82 -44 49 -115
97 -172 116 -34 12 -58 25 -55 30 9 15 170 -3 245 -27 46 -15 46 -15 52 -69 6
-63 34 -126 77 -176 31 -36 31 -38 16 -67 -33 -64 -19 -82 65 -82 58 0 63 -15
25 -71 -33 -48 -86 -73 -138 -65 -34 6 -39 4 -36 -11 2 -11 17 -22 40 -27 51
-13 118 14 150 59 22 34 24 34 75 28 46 -5 54 -3 78 21 26 26 26 46 -1 46 -8
0 -14 -5 -14 -10 0 -19 -44 -32 -72 -21 -33 12 -53 64 -32 82 8 6 14 18 14 25
0 11 21 14 93 14 l93 0 25 -42 c13 -24 30 -59 37 -78 36 -100 -59 -282 -183
-346 -30 -16 -55 -35 -55 -42 0 -42 91 -13 162 51 25 23 63 73 84 111 32 59
38 81 42 146 6 99 -5 129 -83 237 -118 162 -148 198 -210 245 l-62 48 -7 86
c-7 93 -24 135 -63 153 -29 13 -21 14 -61 -6z m-694 -85 c37 -23 95 -66 129
-96 59 -50 69 -55 155 -72 271 -56 389 -232 267 -400 -64 -88 -225 -182 -340
-197 -121 -16 -194 11 -244 92 -28 45 -30 55 -29 134 1 52 8 105 18 134 17 47
16 50 -9 150 -35 137 -46 297 -20 297 3 0 36 -19 73 -42z m755 -3 c10 -20 17
-60 17 -91 l0 -56 -30 7 c-46 10 -36 0 33 -33 34 -17 85 -52 112 -79 53 -50
135 -166 135 -190 0 -9 -17 -13 -66 -13 -56 0 -71 4 -96 25 -16 14 -42 25 -57
25 -34 0 -92 55 -122 116 -17 36 -20 55 -15 104 7 66 12 58 -61 86 -22 9 -20
12 34 72 67 73 91 79 116 27z"/>
<path d="M327 1314 c-21 -22 -1 -125 36 -177 17 -24 25 -28 50 -23 50 10 94
66 52 66 -8 0 -17 11 -21 24 -8 32 -48 69 -71 64 -12 -3 -21 5 -28 25 -6 15
-14 25 -18 21z"/>
<path d="M858 939 c-22 -12 -25 -81 -4 -98 33 -28 63 53 34 92 -10 12 -17 14
-30 6z"/>
<path d="M1170 1012 c0 -27 29 -62 51 -62 25 0 25 30 -1 58 -25 27 -50 29 -50
4z"/>
</g>
</svg>
